<svg id="visual" viewBox="0 0 960 540" width="960" height="540" xmlns="http://www.w3.org/2000/svg" xmlns:xlink="http://www.w3.org/1999/xlink" version="1.1"><rect x="0" y="0" width="960" height="540" fill="#ebedef"></rect><defs><linearGradient id="grad1_0" x1="43.8%" y1="0%" x2="100%" y2="100%"><stop offset="14.444444444444446%" stop-color="#ebedef" stop-opacity="1"></stop><stop offset="85.55555555555554%" stop-color="#ebedef" stop-opacity="1"></stop></linearGradient></defs><defs><linearGradient id="grad2_0" x1="0%" y1="0%" x2="56.3%" y2="100%"><stop offset="14.444444444444446%" stop-color="#ebedef" stop-opacity="1"></stop><stop offset="85.55555555555554%" stop-color="#ebedef" stop-opacity="1"></stop></linearGradient></defs><g transform="translate(960, 0)"><path d="M0 189C-34.4 184.8 -68.8 180.7 -94.5 163.7C-120.2 146.7 -137.3 116.9 -151.6 87.5C-165.9 58.1 -177.4 29 -189 0L0 0Z" fill="#e36c8b"></path></g><g transform="translate(0, 540)"><path d="M0 -189C33.7 -184.4 67.4 -179.9 94.5 -163.7C121.6 -147.5 142.1 -119.7 156.8 -90.5C171.4 -61.3 180.2 -30.6 189 0L0 0Z" fill="#e36c8b"></path></g></svg>