<?xml version="1.0" standalone="no"?>
<!DOCTYPE svg PUBLIC "-//W3C//DTD SVG 20010904//EN"
 "http://www.w3.org/TR/2001/REC-SVG-20010904/DTD/svg10.dtd">
<svg version="1.0" xmlns="http://www.w3.org/2000/svg"
 width="1563.000000pt" height="1563.000000pt" viewBox="0 0 1563.000000 1563.000000"
 preserveAspectRatio="xMidYMid meet">
<metadata>
Created by potrace 1.14, written by Peter Selinger 2001-2017
</metadata>
<g transform="translate(0.000000,1563.000000) scale(0.100000,-0.100000)"
fill="#000000" stroke="none">
<path d="M0 7815 l0 -7815 7815 0 7815 0 0 7815 0 7815 -7815 0 -7815 0 0
-7815z m3519 5742 c11 -18 42 -90 70 -160 28 -71 59 -139 67 -153 20 -30 12
-54 -20 -54 -23 0 -42 27 -61 88 -6 21 -12 22 -99 22 l-93 0 -20 -52 c-18 -47
-23 -53 -49 -53 -40 0 -38 11 42 200 89 209 117 237 163 162z m3000 0 c11 -18
42 -90 70 -160 28 -71 59 -139 67 -153 20 -30 12 -54 -20 -54 -23 0 -42 27
-61 88 -6 21 -12 22 -95 22 -96 0 -95 1 -121 -65 -14 -34 -21 -40 -45 -40 -40
0 -38 11 42 200 89 209 117 237 163 162z m5650 0 c11 -18 42 -90 70 -160 28
-71 59 -139 67 -153 20 -30 12 -54 -20 -54 -23 0 -42 27 -61 88 -6 21 -12 22
-99 22 l-93 0 -20 -52 c-18 -47 -23 -53 -49 -53 -40 0 -38 11 42 200 89 209
117 237 163 162z m-9569 -57 l5 -85 80 -3 c126 -5 124 -6 127 91 3 81 3 82 30
85 l27 3 3 -183 c2 -101 -1 -191 -5 -201 -5 -11 -17 -17 -30 -15 -20 3 -22 9
-25 86 l-3 82 -104 0 -104 0 -3 -82 c-3 -73 -5 -83 -22 -86 -40 -8 -46 22 -46
208 0 97 3 180 7 184 4 4 19 6 33 4 24 -3 25 -6 30 -88z m646 75 c13 -34 -14
-44 -106 -42 -49 1 -91 0 -94 -3 -2 -3 -8 -30 -12 -59 l-7 -54 79 5 c88 6 104
3 104 -18 0 -21 -43 -34 -116 -34 l-64 0 0 -48 c0 -26 5 -53 12 -60 16 -16 84
-15 140 2 51 15 72 8 66 -20 -5 -26 -46 -44 -121 -51 -141 -13 -174 26 -163
192 9 124 20 176 42 192 27 20 233 18 240 -2z m545 -20 c4 -16 7 -93 8 -169
l1 -139 79 7 c68 5 82 4 102 -13 19 -15 21 -22 11 -33 -9 -11 -36 -14 -114
-13 -158 3 -144 -17 -145 206 l-2 190 27 -3 c21 -2 28 -10 33 -33z m436 23 c6
-7 18 -51 28 -98 27 -130 46 -187 55 -170 4 8 23 58 40 110 49 142 79 151 120
38 36 -102 62 -158 69 -153 4 2 13 30 20 62 27 126 53 212 67 217 8 3 21 3 30
-1 21 -8 17 -29 -36 -225 -43 -157 -53 -175 -90 -163 -17 5 -82 133 -95 188
-4 15 -11 29 -15 32 -4 3 -25 -41 -45 -98 -42 -114 -50 -127 -76 -127 -24 0
-40 33 -77 160 -54 187 -58 211 -36 227 22 16 29 16 41 1z m661 -11 c3 -13 -5
-19 -29 -24 l-32 -6 7 -111 c3 -61 6 -128 6 -148 0 -34 3 -38 24 -38 30 0 42
-16 26 -35 -9 -10 -32 -15 -75 -15 -76 0 -95 6 -95 31 0 15 7 19 31 19 l32 0
-7 53 c-3 28 -6 96 -6 150 0 97 0 97 -25 97 -18 0 -25 5 -25 19 0 26 13 30 95
28 58 -2 70 -5 73 -20z m374 5 c5 -5 8 -18 6 -28 -3 -16 -13 -19 -68 -19 l-65
0 0 -165 c0 -150 -2 -165 -18 -168 -42 -8 -47 12 -47 180 l0 160 -33 -6 c-70
-13 -132 21 -92 50 20 15 302 11 317 -4z m132 2 c4 -9 3 -46 0 -81 -5 -50 -4
-67 7 -74 18 -11 180 -11 198 0 11 7 12 24 7 77 -7 78 1 97 35 92 l24 -3 0
-195 0 -195 -25 0 c-24 0 -25 2 -28 83 l-3 82 -111 0 -111 0 7 -79 c7 -75 6
-80 -14 -86 -45 -14 -50 4 -50 200 0 100 3 185 7 188 13 13 51 7 57 -9z m812
-18 c39 -39 42 -51 15 -65 -15 -8 -27 -4 -57 20 -34 27 -44 30 -79 25 -76 -12
-117 -62 -118 -145 -1 -88 49 -141 134 -141 30 0 54 8 81 27 37 25 40 25 56 9
13 -12 14 -20 6 -33 -46 -73 -188 -83 -278 -20 -78 55 -88 215 -19 298 37 43
76 58 157 59 64 0 70 -2 102 -34z m767 10 c91 -45 87 -145 -9 -194 l-34 -17
55 -73 c54 -70 61 -92 28 -92 -31 0 -71 35 -104 89 -18 31 -34 57 -35 59 -1 1
-20 0 -42 -4 l-41 -6 6 -63 c5 -59 4 -63 -17 -70 -44 -14 -50 12 -50 201 0
154 2 174 18 184 28 17 181 8 225 -14z m413 9 c13 -34 -14 -44 -106 -42 -49 1
-91 0 -94 -3 -2 -3 -8 -30 -12 -59 l-7 -54 79 5 c88 6 104 3 104 -18 0 -21
-43 -34 -116 -34 l-64 0 0 -48 c0 -26 5 -53 12 -60 16 -16 84 -15 140 2 51 15
72 8 66 -20 -5 -26 -46 -44 -121 -51 -141 -13 -174 26 -163 192 9 124 20 176
42 192 27 20 233 18 240 -2z m436 -72 l3 -88 100 0 100 0 5 85 5 85 30 0 30 0
3 -193 c2 -172 1 -193 -14 -199 -36 -14 -49 10 -49 88 l0 74 -109 3 -108 3 3
-77 c3 -62 1 -79 -12 -87 -9 -6 -24 -7 -33 -4 -13 5 -16 24 -18 104 -3 114 1
262 7 281 2 6 16 12 29 12 25 0 25 -2 28 -87z m646 75 c7 -7 8 -17 1 -30 -8
-16 -21 -18 -97 -16 -48 2 -93 -1 -99 -5 -8 -5 -13 -29 -13 -59 l0 -50 83 3
c78 4 82 3 85 -18 4 -25 -18 -31 -118 -36 l-55 -2 -3 -41 c-5 -63 16 -78 92
-69 110 13 130 12 134 -8 6 -29 -60 -50 -156 -51 -80 -1 -85 0 -108 27 -22 26
-24 36 -23 125 1 128 11 197 34 222 16 18 30 20 125 20 67 0 110 -4 118 -12z
m350 0 c7 -7 8 -17 1 -30 -8 -16 -21 -18 -97 -16 -48 2 -93 -1 -99 -5 -8 -5
-13 -29 -13 -59 l0 -50 83 3 c78 4 82 3 85 -18 4 -25 -18 -31 -118 -36 l-55
-2 -3 -41 c-5 -63 16 -78 92 -69 110 13 130 12 134 -8 6 -29 -60 -50 -156 -51
-80 -1 -85 0 -108 27 -22 26 -24 36 -23 125 1 128 11 197 34 222 16 18 30 20
125 20 67 0 110 -4 118 -12z m281 -3 c95 -33 141 -94 141 -187 0 -131 -126
-216 -288 -194 -26 3 -53 13 -62 22 -13 13 -13 17 9 33 l24 18 -7 152 c-4 83
-4 156 -1 161 9 15 137 12 184 -5z m401 -7 c5 -13 21 -76 35 -140 15 -65 30
-120 34 -122 4 -3 25 45 46 105 58 164 82 165 139 5 20 -55 40 -104 45 -109
11 -11 11 -9 46 139 30 128 44 155 72 138 25 -16 21 -42 -29 -223 -61 -219
-83 -225 -158 -48 -24 59 -48 103 -51 99 -4 -4 -22 -50 -40 -102 -18 -52 -37
-101 -42 -107 -15 -20 -45 -15 -61 10 -15 24 -66 194 -87 291 -12 54 -11 60 6
72 26 19 34 18 45 -8z m658 -1 c3 -12 -5 -19 -27 -23 -31 -6 -31 -7 -31 -73 0
-36 3 -103 7 -148 6 -79 7 -83 29 -83 17 0 24 -6 24 -19 0 -24 -19 -31 -85
-31 -66 0 -85 7 -85 30 0 13 9 20 28 22 15 2 26 6 25 11 -2 4 -3 70 -3 147 l0
140 -24 0 c-29 0 -41 26 -18 40 9 5 48 9 87 7 58 -2 70 -5 73 -20z m365 8 c11
-5 17 -16 15 -29 -3 -19 -8 -21 -72 -18 l-68 3 3 -168 c4 -164 4 -168 -17
-171 -38 -5 -43 17 -46 179 l-3 154 -25 -2 c-45 -4 -101 9 -107 23 -3 8 0 21
6 28 10 11 42 14 154 11 78 -1 150 -6 160 -10z m141 -1 c4 -9 3 -46 0 -81 -5
-50 -4 -67 7 -74 18 -11 180 -11 198 0 11 7 12 24 7 77 -7 78 1 97 35 92 l24
-3 0 -195 0 -195 -25 0 c-24 0 -25 2 -28 83 l-3 82 -111 0 -111 0 7 -79 c7
-75 6 -80 -14 -86 -45 -14 -50 4 -50 200 0 100 3 185 7 188 13 13 51 7 57 -9z
m586 -74 l5 -85 100 0 100 0 5 85 c5 83 6 85 32 88 l27 3 3 -183 c2 -101 -1
-191 -5 -201 -5 -11 -17 -17 -30 -15 -20 3 -22 9 -25 86 l-3 82 -104 0 -104 0
-3 -82 c-3 -73 -5 -83 -22 -86 -40 -8 -46 22 -46 208 0 97 3 180 7 184 4 4 19
6 33 4 24 -3 25 -6 30 -88z m646 75 c13 -34 -14 -44 -106 -42 -49 1 -91 0 -94
-3 -2 -3 -8 -30 -12 -59 l-7 -54 79 5 c88 6 104 3 104 -18 0 -21 -43 -34 -116
-34 l-64 0 0 -48 c0 -26 5 -53 12 -60 16 -16 84 -15 140 2 51 15 72 8 66 -20
-5 -26 -46 -44 -121 -51 -141 -13 -174 26 -163 192 9 124 20 176 42 192 27 20
233 18 240 -2z m727 -9 c91 -45 87 -145 -9 -194 l-34 -17 55 -73 c54 -70 61
-92 28 -92 -31 0 -71 35 -104 89 -18 31 -34 57 -35 59 -1 1 -20 0 -42 -4 l-41
-6 6 -63 c5 -59 4 -63 -17 -70 -44 -14 -50 12 -50 201 0 154 2 174 18 184 28
17 181 8 225 -14z m420 9 c11 -5 17 -16 15 -29 -3 -19 -8 -21 -72 -18 l-68 3
3 -168 c4 -164 4 -168 -17 -171 -38 -5 -43 17 -46 179 l-3 154 -25 -2 c-45 -4
-101 9 -107 23 -3 8 0 21 6 28 10 11 42 14 154 11 78 -1 150 -6 160 -10z
m-5542 -325 c10 -6 19 -20 19 -31 0 -47 -61 -122 -82 -101 -8 8 -5 18 11 38
19 24 20 29 6 36 -20 12 -19 45 3 57 21 13 20 13 43 1z m3745 -1767 c97 -148
183 -276 192 -285 14 -17 28 -11 229 93 119 62 219 107 223 103 8 -8 -54 -296
-112 -528 l-23 -90 -50 -17 c-102 -35 -251 -50 -545 -56 -383 -7 -655 15 -762
63 l-37 17 -31 131 c-16 72 -48 208 -69 301 -22 94 -36 174 -31 179 4 4 103
-41 223 -103 200 -103 215 -109 230 -93 8 9 94 137 191 285 97 147 181 267
186 267 6 0 89 -120 186 -267z m-1830 -701 c24 -17 224 -290 224 -307 0 -24
-28 -55 -50 -55 -21 0 -37 17 -154 173 -94 125 -110 159 -84 185 13 13 47 16
64 4z m3352 -4 c26 -26 10 -60 -84 -185 -116 -153 -133 -173 -152 -173 -23 0
-52 30 -52 53 0 18 198 291 224 309 17 12 51 9 64 -4z m-7819 -83 c23 -8 55
-23 70 -34 26 -19 31 -19 75 -6 75 23 166 29 243 15 116 -19 261 -98 342 -185
39 -42 47 -46 75 -41 86 18 147 18 198 1 90 -29 138 -74 213 -199 6 -9 44 -26
85 -37 126 -34 196 -75 285 -164 61 -60 90 -99 117 -155 20 -42 45 -82 55 -91
10 -8 50 -25 88 -37 162 -51 281 -200 292 -367 6 -92 9 -98 68 -160 57 -59
103 -136 125 -212 7 -24 16 -43 19 -42 3 0 50 56 104 124 70 90 97 132 97 152
0 56 23 110 85 199 79 114 97 150 125 244 26 90 48 117 79 101 29 -16 27 -43
-14 -169 -20 -62 -31 -110 -25 -116 8 -8 68 51 159 157 46 52 101 50 101 -3 0
-5 -41 -55 -90 -111 -90 -102 -90 -102 -71 -123 61 -68 53 -119 -39 -235 -41
-52 -119 -100 -165 -101 -14 -1 -77 -73 -202 -230 l-182 -230 25 -42 c82 -144
85 -318 7 -472 -24 -48 -116 -149 -162 -177 -21 -13 -22 -17 -12 -54 15 -55
14 -169 -3 -232 -23 -88 -58 -145 -129 -215 -73 -70 -76 -73 -148 -148 -70
-72 -162 -87 -256 -43 -28 13 -34 13 -58 -3 -33 -22 -147 -30 -204 -14 -56 15
-140 97 -161 159 -16 43 -17 44 -98 67 -46 13 -109 38 -142 54 -72 37 -93 37
-187 5 -43 -15 -119 -30 -183 -37 -104 -10 -110 -12 -110 -33 0 -61 43 -444
61 -545 53 -300 67 -348 140 -500 98 -203 166 -322 340 -596 99 -156 170 -257
205 -290 40 -38 56 -63 68 -104 23 -78 21 -107 -13 -141 l-29 -29 -223 0
c-244 0 -259 3 -259 60 0 53 97 172 173 211 l38 20 -19 32 c-10 18 -71 113
-134 212 -133 207 -211 347 -314 563 -60 126 -78 175 -98 270 -46 220 -75 407
-96 632 -11 124 -25 236 -31 249 -8 20 -14 22 -47 17 -89 -15 -217 -18 -271
-6 -93 20 -196 76 -267 147 l-65 63 -45 -11 c-43 -11 -146 -8 -206 7 -26 6
-26 5 -33 -52 -4 -33 -16 -113 -27 -179 -49 -299 -71 -614 -72 -1025 0 -286 3
-355 27 -575 40 -367 31 -330 80 -357 47 -26 100 -105 112 -165 5 -28 2 -42
-13 -62 -36 -49 -47 -51 -357 -51 -318 0 -335 3 -335 57 0 36 64 116 130 163
52 36 186 90 224 90 9 0 16 3 16 8 0 4 -12 108 -26 232 -44 381 -44 1092 0
1411 8 52 31 200 51 330 21 129 36 242 33 251 -5 11 -27 17 -77 22 -71 7 -71
7 -113 -28 -67 -58 -123 -80 -210 -84 -93 -5 -153 13 -222 66 -46 34 -71 72
-120 182 -10 22 -21 26 -78 32 -151 17 -247 95 -282 231 -15 55 -13 88 10 188
4 20 -1 34 -25 61 -63 73 -77 156 -41 248 24 61 21 68 -46 119 -59 44 -91 98
-99 166 -7 50 -7 51 -106 123 -83 62 -106 85 -145 147 -68 110 -120 207 -237
441 -91 184 -109 213 -134 222 -17 5 -46 24 -65 40 -39 35 -97 152 -105 212
-5 37 11 100 26 100 3 1 17 9 29 20 l24 20 -62 110 c-70 126 -76 165 -26 165
16 0 33 -7 37 -15 5 -8 35 -62 68 -120 32 -57 63 -106 70 -108 13 -4 14 51 2
173 -9 90 -1 115 34 115 33 0 41 -20 49 -120 7 -96 23 -157 73 -278 29 -72 34
-93 32 -156 -2 -82 -15 -51 172 -431 108 -220 150 -297 165 -302 5 -2 22 25
37 61 15 35 41 76 57 91 27 26 30 35 30 94 1 109 56 192 147 221 53 17 59 24
73 78 33 131 152 273 282 336 41 20 97 39 124 42 68 9 78 16 112 76 38 69 118
143 190 176 50 24 71 27 164 29 108 1 108 1 210 51 120 59 175 73 318 78 58 3
159 8 225 13 66 4 134 8 151 9 17 1 50 -5 73 -13z m5939 -217 c60 -15 122 -76
141 -138 9 -32 12 -92 10 -210 l-4 -165 24 0 25 0 0 185 c1 172 3 188 23 227
51 94 168 135 258 90 11 -5 36 -22 55 -37 27 -21 51 -29 105 -34 144 -15 261
-73 358 -176 58 -61 66 -65 154 -74 99 -10 171 -66 219 -174 36 -78 44 -84
133 -102 76 -15 142 -54 206 -121 66 -69 104 -146 115 -232 11 -84 15 -92 68
-126 54 -35 84 -75 120 -163 23 -56 26 -77 26 -193 1 -71 -3 -155 -8 -187 -8
-56 -8 -56 32 -100 73 -79 87 -119 87 -238 0 -94 -3 -110 -26 -155 -15 -27
-37 -59 -49 -70 -37 -34 -48 -66 -48 -151 -1 -54 -8 -100 -20 -137 -20 -56
-67 -132 -96 -156 -26 -21 -19 -29 35 -40 28 -6 85 -27 126 -46 42 -19 80 -35
86 -35 17 0 181 -103 250 -158 122 -97 161 -178 133 -277 -18 -61 -53 -100
-116 -129 -40 -19 -63 -21 -215 -21 -139 0 -190 5 -280 24 -105 22 -307 94
-370 133 -47 28 -90 24 -115 -12 -24 -33 -41 -37 -64 -15 -8 8 -26 15 -40 15
-15 0 -31 8 -38 20 -7 11 -21 20 -30 20 -9 0 -25 9 -35 19 -10 10 -27 20 -38
22 -11 2 -24 14 -30 27 -14 31 -49 28 -105 -8 -26 -17 -80 -38 -121 -48 l-74
-19 2 -44 c0 -24 2 -186 3 -359 3 -446 -26 -910 -85 -1330 -18 -129 -31 -238
-29 -241 2 -3 30 -16 63 -28 38 -14 77 -38 109 -69 53 -49 105 -143 95 -171
-13 -38 -31 -41 -255 -41 l-219 0 -24 25 c-20 19 -25 34 -25 72 0 47 27 122
55 153 20 23 92 568 115 875 27 374 40 956 24 1126 l-7 67 -48 23 -49 23 -62
-30 c-157 -75 -318 11 -335 180 -5 44 -9 56 -23 56 -14 0 -18 -12 -23 -56 -17
-169 -178 -255 -335 -180 l-62 30 -49 -23 -48 -23 -7 -67 c-9 -101 -7 -544 4
-772 19 -398 33 -544 96 -1024 19 -142 30 -195 43 -210 20 -23 39 -67 51 -121
10 -45 -8 -97 -38 -113 -31 -16 -443 -15 -464 2 -27 21 -27 43 -2 98 34 73
110 143 185 170 33 12 61 25 64 28 2 4 -12 112 -30 241 -58 409 -88 886 -85
1330 1 173 3 335 3 359 l2 44 -74 19 c-41 10 -95 31 -121 48 -56 36 -91 39
-105 8 -6 -13 -19 -25 -30 -27 -11 -2 -28 -12 -38 -22 -10 -10 -26 -19 -35
-19 -9 0 -23 -9 -30 -20 -7 -12 -23 -20 -38 -20 -14 0 -32 -7 -40 -15 -23 -22
-40 -18 -64 15 -28 39 -62 39 -142 -1 -102 -51 -229 -96 -344 -120 -146 -31
-412 -34 -486 -6 -99 38 -153 144 -124 242 19 61 53 104 134 168 68 54 232
157 249 157 6 0 44 16 86 35 41 19 98 40 126 46 54 11 61 19 35 40 -30 25 -75
99 -95 156 -12 37 -19 83 -19 135 0 83 -11 118 -50 153 -12 11 -34 43 -49 70
-23 45 -26 61 -26 155 0 119 14 159 87 238 40 44 40 44 32 100 -5 32 -9 116
-8 187 0 116 3 137 26 193 36 88 66 128 120 163 53 34 57 42 68 126 11 86 49
163 115 232 64 67 130 106 206 121 89 18 97 24 133 102 48 108 120 164 219
174 88 9 96 13 154 74 97 103 214 161 358 176 58 6 78 13 114 41 25 18 56 36
70 39 14 3 31 7 36 9 18 6 25 5 73 -7z m-2020 -575 c83 -48 155 -96 158 -105
9 -29 -5 -57 -32 -64 -18 -5 -54 11 -151 67 -201 114 -203 115 -203 149 0 33
24 52 55 45 11 -2 89 -44 173 -92z m4593 87 c12 -7 19 -21 19 -40 0 -34 -1
-35 -203 -149 -133 -77 -168 -84 -182 -41 -12 38 5 55 126 125 220 127 208
122 240 105z m-4923 -970 c81 -11 157 -23 169 -25 44 -10 54 -73 14 -94 -25
-14 -370 36 -393 57 -20 17 -22 35 -8 63 13 24 33 24 218 -1z m5266 -13 c18
-50 -9 -62 -184 -86 -85 -12 -167 -24 -182 -27 -28 -6 -68 23 -68 49 0 39 25
49 181 73 85 12 174 22 199 21 39 -2 46 -5 54 -30z m-5633 -5126 c67 -32 120
-81 154 -142 24 -45 30 -69 33 -139 4 -81 2 -88 -30 -150 -25 -48 -50 -78 -96
-115 l-63 -50 51 -25 c50 -24 52 -24 62 -5 27 46 56 65 104 65 41 0 51 -5 85
-39 45 -45 51 -84 19 -143 l-19 -36 49 -32 c71 -46 100 -83 100 -130 0 -57
-18 -87 -66 -111 -51 -24 -86 -17 -150 31 -22 16 -43 29 -49 29 -5 0 -37 -39
-70 -87 -87 -127 -188 -225 -271 -264 -180 -85 -373 -23 -453 145 -106 222
-29 474 192 632 l28 20 -20 45 c-11 25 -25 75 -31 112 -32 182 81 364 255 409
48 13 137 3 186 -20z m-4065 -146 c14 -9 32 -31 41 -50 16 -33 15 -42 -6 -162
-42 -235 -77 -496 -96 -708 -3 -38 -8 -87 -11 -108 -12 -79 -104 -127 -177
-92 -58 27 -63 53 -46 241 l14 164 -111 0 -111 0 -23 -197 c-12 -109 -29 -212
-37 -230 -20 -43 -90 -78 -139 -68 -50 9 -84 45 -84 89 0 19 18 187 40 373 22
186 47 401 55 478 9 77 20 156 26 175 31 96 133 127 209 63 33 -27 39 -67 20
-132 -5 -19 -14 -82 -20 -140 -5 -58 -12 -121 -15 -138 l-6 -33 114 0 113 0
34 206 c35 217 49 261 90 282 30 16 92 10 126 -13z m5939 9 c36 -17 58 -44 68
-82 3 -13 -10 -112 -28 -220 -38 -224 -59 -379 -80 -602 -16 -172 -24 -192
-89 -224 -46 -23 -98 -15 -134 21 -25 25 -25 27 -19 137 4 61 10 141 13 179
l7 67 -112 0 c-61 0 -111 -3 -111 -7 0 -5 -11 -98 -25 -208 -27 -219 -33 -236
-99 -269 -46 -22 -98 -15 -132 19 -32 33 -32 52 16 451 22 183 46 396 55 473
8 77 21 155 28 174 30 71 108 103 174 71 62 -31 70 -56 50 -161 -9 -48 -19
-115 -22 -148 -3 -33 -8 -81 -11 -107 l-6 -48 115 0 114 0 7 63 c4 34 20 134
36 222 27 149 31 162 60 188 35 31 75 35 125 11z m-5074 -40 c68 -40 77 -152
16 -198 -25 -19 -39 -20 -171 -17 l-144 2 -11 -68 c-6 -37 -14 -80 -17 -94 -5
-26 -5 -26 73 -31 96 -6 139 -26 160 -75 20 -48 10 -95 -28 -133 -30 -30 -32
-30 -138 -30 l-108 0 -7 -52 c-4 -29 -9 -69 -13 -89 l-5 -37 178 5 c168 4 181
3 212 -16 36 -23 52 -55 52 -107 0 -47 -23 -89 -57 -102 -15 -6 -109 -13 -208
-16 -99 -3 -218 -8 -265 -11 -75 -6 -89 -4 -118 14 -57 37 -58 44 -22 308 54
401 106 692 128 722 36 50 52 52 263 48 173 -3 199 -5 230 -23z m5960 0 c68
-40 77 -152 16 -198 -25 -19 -39 -20 -171 -17 l-144 2 -11 -68 c-6 -37 -14
-80 -17 -94 -5 -26 -5 -26 73 -31 96 -6 139 -26 160 -75 20 -48 10 -95 -28
-133 -30 -30 -32 -30 -138 -30 l-108 0 -7 -52 c-4 -29 -9 -69 -13 -89 l-5 -37
178 5 c168 4 181 3 212 -16 36 -23 52 -55 52 -107 0 -47 -23 -89 -57 -102 -15
-6 -109 -13 -208 -16 -99 -3 -218 -8 -265 -11 -75 -6 -89 -4 -118 14 -57 37
-58 44 -22 308 54 401 106 692 128 722 36 50 52 52 263 48 173 -3 199 -5 230
-23z m870 0 c68 -40 77 -152 16 -198 -25 -19 -39 -20 -171 -17 l-144 2 -11
-68 c-6 -37 -14 -80 -17 -94 -5 -26 -5 -26 73 -31 96 -6 139 -26 160 -75 20
-48 10 -95 -28 -133 -30 -30 -32 -30 -138 -30 l-108 0 -7 -52 c-4 -29 -9 -69
-13 -89 l-5 -37 178 5 c168 4 181 3 212 -16 36 -23 52 -55 52 -107 0 -47 -23
-89 -57 -102 -15 -6 -109 -13 -208 -16 -99 -3 -218 -8 -265 -11 -75 -6 -89 -4
-118 14 -57 37 -58 44 -22 308 54 401 106 692 128 722 36 50 52 52 263 48 173
-3 199 -5 230 -23z m559 -19 c179 -46 316 -148 384 -286 93 -190 60 -368 -98
-524 -83 -83 -176 -132 -361 -194 -133 -45 -162 -48 -206 -25 -53 27 -57 54
-48 289 15 396 32 670 43 705 6 19 22 40 36 48 32 17 159 10 250 -13z m-6504
-50 c37 -40 60 -104 74 -210 15 -108 32 -828 21 -857 -23 -61 -106 -87 -171
-53 -46 24 -60 62 -60 162 0 142 8 133 -131 133 -66 0 -119 -1 -119 -2 -1 -32
-55 -269 -66 -285 -29 -45 -123 -47 -170 -2 -48 45 -48 71 -9 265 77 379 195
639 357 789 74 69 126 94 192 95 43 0 53 -4 82 -35z m527 -47 c56 -29 57 -38
20 -405 -15 -150 -24 -275 -21 -278 3 -3 61 3 129 14 258 41 304 38 334 -20
26 -50 19 -105 -18 -145 -31 -35 -37 -36 -142 -50 -152 -20 -214 -31 -332 -61
-124 -31 -159 -27 -202 23 -17 19 -31 42 -31 52 0 9 18 194 40 411 42 422 43
429 101 458 30 16 94 17 122 1z m-2682 -1725 c7 -7 9 -19 6 -27 -5 -13 -24
-16 -94 -16 -48 0 -93 -4 -99 -8 -6 -4 -13 -28 -16 -54 -6 -54 -15 -50 100
-48 57 1 72 -2 72 -13 0 -25 -23 -34 -102 -42 l-78 -7 0 -43 c0 -70 17 -74
183 -49 36 6 38 5 35 -17 -5 -36 -51 -53 -146 -53 -81 -1 -85 0 -109 29 -26
29 -26 30 -20 168 6 167 14 184 84 190 79 7 172 2 184 -10z m585 9 c13 -8 25
-364 13 -383 -4 -7 -17 -9 -33 -5 -25 6 -26 9 -26 86 l0 80 -106 0 -106 0 3
-76 c3 -62 1 -79 -12 -87 -9 -6 -24 -7 -33 -4 -15 6 -16 27 -14 194 l3 188 28
3 27 3 0 -85 0 -86 105 0 105 0 0 78 c0 87 14 116 46 94z m492 -24 c11 -18 39
-79 61 -136 23 -57 53 -126 67 -154 28 -56 26 -81 -8 -76 -16 2 -30 18 -47 54
l-25 51 -87 1 -88 1 -22 -55 c-18 -44 -27 -54 -46 -54 -13 0 -26 6 -29 14 -7
17 113 303 152 364 21 31 49 28 72 -10z m652 7 c56 -29 63 -105 13 -144 l-25
-20 25 -6 c88 -22 80 -133 -13 -182 -48 -25 -145 -31 -211 -13 l-36 10 -6 167
c-3 98 -2 174 4 184 16 32 191 34 249 4z m824 -41 c3 -26 6 -99 6 -162 l0
-115 71 6 c86 7 122 -4 117 -36 -3 -21 -6 -22 -114 -21 -61 0 -118 4 -127 7
-13 5 -15 31 -15 160 0 85 -3 163 -6 175 -4 12 -1 26 9 36 26 26 51 5 59 -50z
m1590 27 c28 -48 138 -312 140 -336 1 -15 -5 -20 -24 -20 -24 0 -40 20 -59 76
-9 26 -12 27 -99 28 l-90 0 -22 -55 c-20 -49 -26 -55 -49 -52 -19 2 -25 8 -24
24 3 26 118 298 145 342 26 42 55 39 82 -7z m1592 24 c76 -22 116 -75 129
-172 26 -192 -246 -292 -353 -130 -56 84 -27 228 55 278 64 40 99 45 169 24z
m1587 1 c41 -17 70 -49 65 -73 -5 -28 -37 -27 -63 1 -43 46 -149 27 -180 -33
-21 -41 -21 -119 -1 -159 34 -66 130 -83 198 -35 35 24 40 25 54 11 34 -34
-27 -86 -110 -95 -140 -14 -237 77 -223 211 6 56 34 123 62 146 19 16 98 38
138 39 15 1 42 -5 60 -13z m608 -3 c7 -7 9 -19 6 -27 -5 -13 -24 -16 -94 -16
-48 0 -93 -4 -99 -8 -6 -4 -13 -28 -16 -54 -6 -54 -15 -50 100 -48 57 1 72 -2
72 -13 0 -25 -23 -34 -102 -42 l-78 -7 0 -43 c0 -70 17 -74 183 -49 36 6 38 5
35 -17 -5 -36 -51 -53 -146 -53 -81 -1 -85 0 -109 29 -26 29 -26 30 -20 168 6
167 14 184 84 190 79 7 172 2 184 -10z m1680 0 c7 -7 9 -19 6 -27 -5 -13 -24
-16 -94 -16 -48 0 -93 -4 -99 -8 -6 -4 -13 -28 -16 -54 -6 -54 -15 -50 100
-48 57 1 72 -2 72 -13 0 -25 -23 -34 -102 -42 l-78 -7 0 -43 c0 -70 17 -74
183 -49 36 6 38 5 35 -17 -5 -36 -51 -53 -146 -53 -81 -1 -85 0 -109 29 -26
29 -26 30 -20 168 6 167 14 184 84 190 79 7 172 2 184 -10z m-10203 -13 c31
-14 47 -29 58 -56 22 -54 6 -94 -52 -126 l-46 -25 52 -68 c51 -68 57 -95 21
-95 -28 0 -60 30 -95 91 -18 30 -38 54 -44 53 -7 -1 -25 -2 -41 -2 l-29 -2 1
-67 c2 -63 0 -68 -20 -71 -14 -2 -26 4 -32 17 -15 26 -11 353 3 363 6 4 49 8
96 8 63 0 96 -6 128 -20z m2810 3 c-2 -9 -14 -20 -28 -23 -31 -7 -34 -32 -25
-187 6 -103 9 -113 26 -113 24 0 37 -29 18 -41 -16 -10 -119 -12 -143 -3 -9 3
-16 15 -16 25 0 15 7 19 31 19 30 0 31 2 25 31 -3 17 -6 83 -6 145 l0 114 -25
0 c-18 0 -25 5 -25 18 0 29 8 32 92 32 70 0 79 -2 76 -17z m922 -3 c0 -15 -7
-20 -25 -20 l-25 0 0 -150 0 -150 25 0 c29 0 45 -28 24 -41 -22 -14 -133 -11
-154 4 -23 17 -12 37 20 37 l25 0 -2 145 -1 145 -24 0 c-27 0 -43 28 -22 41 8
5 47 9 87 9 65 0 72 -2 72 -20z m538 14 c15 -4 22 -14 22 -30 0 -23 -3 -24
-65 -24 l-65 0 -2 -162 -3 -163 -25 0 c-25 0 -25 2 -33 105 -4 58 -6 131 -4
163 l3 57 -52 0 c-29 0 -59 3 -68 6 -16 6 -22 35 -9 47 8 9 270 9 301 1z
m1137 -8 c11 -8 16 -19 12 -30 -5 -12 -20 -16 -67 -16 -70 0 -63 21 -64 -190
-1 -132 -1 -135 -23 -138 -35 -5 -43 32 -43 189 l0 139 -60 0 c-63 0 -79 11
-66 45 8 21 282 22 311 1z m413 -3 c-2 -9 -14 -20 -28 -23 -31 -7 -34 -32 -25
-187 6 -103 9 -113 26 -113 24 0 37 -29 18 -41 -16 -10 -119 -12 -143 -3 -9 3
-16 15 -16 25 0 15 7 19 31 19 30 0 31 2 25 31 -3 17 -6 83 -6 145 l0 114 -25
0 c-18 0 -25 5 -25 18 0 29 8 32 92 32 70 0 79 -2 76 -17z m1030 -65 c32 -46
77 -110 98 -142 l39 -59 5 139 5 139 29 0 28 0 2 -179 c1 -142 -1 -182 -13
-193 -27 -28 -55 -10 -111 72 -30 45 -73 107 -96 138 l-41 57 -1 -126 c0 -132
-10 -164 -46 -151 -14 6 -16 32 -16 190 0 101 3 187 7 190 3 4 17 7 29 7 17 0
38 -21 82 -82z m2060 0 c32 -46 77 -110 98 -142 l39 -59 5 139 5 139 29 0 28
0 2 -179 c1 -142 -1 -182 -13 -193 -27 -28 -55 -10 -111 72 -30 45 -73 107
-96 138 l-41 57 -1 -126 c0 -132 -10 -164 -46 -151 -14 6 -16 32 -16 190 0
101 3 187 7 190 3 4 17 7 29 7 17 0 38 -21 82 -82z m767 68 c11 -8 16 -19 12
-30 -5 -12 -20 -16 -67 -16 -70 0 -63 20 -64 -185 -1 -137 -1 -140 -23 -143
-35 -5 -43 32 -43 189 l0 139 -60 0 c-63 0 -79 11 -66 45 8 21 282 22 311 1z
m1019 0 c52 -22 76 -54 76 -102 0 -35 -5 -47 -31 -68 -17 -14 -34 -26 -37 -26
-4 0 -13 -4 -21 -9 -11 -7 -10 -15 9 -42 13 -19 37 -48 53 -66 32 -34 31 -63
-1 -63 -30 0 -68 36 -103 96 -21 38 -36 54 -46 50 -8 -3 -26 -6 -40 -6 -24 0
-25 -1 -18 -64 7 -61 6 -64 -16 -71 -42 -14 -49 13 -49 200 0 95 3 175 7 178
12 13 183 7 217 -7z"/>
<path d="M3447 13463 c-14 -32 -30 -70 -36 -85 l-11 -28 70 0 c39 0 70 2 70 5
0 9 -61 165 -64 165 -2 0 -15 -26 -29 -57z"/>
<path d="M6447 13463 c-14 -32 -30 -70 -36 -85 l-11 -28 70 0 c39 0 70 2 70 5
0 9 -61 165 -64 165 -2 0 -15 -26 -29 -57z"/>
<path d="M12097 13463 c-14 -32 -30 -70 -36 -85 l-11 -28 70 0 c39 0 70 2 70
5 0 9 -61 165 -64 165 -2 0 -15 -26 -29 -57z"/>
<path d="M6807 13533 c-3 -5 -8 -39 -12 -77 l-7 -69 52 6 c29 4 69 15 89 25
31 16 36 24 36 53 0 29 -5 37 -35 51 -35 18 -115 25 -123 11z"/>
<path d="M8980 13396 l0 -146 43 0 c116 0 188 106 141 206 -21 44 -66 71 -132
80 l-52 7 0 -147z"/>
<path d="M12457 13533 c-3 -5 -8 -39 -12 -77 l-7 -69 52 6 c29 4 69 15 89 25
31 16 36 24 36 53 0 29 -5 37 -35 51 -35 18 -115 25 -123 11z"/>
<path d="M3515 9183 c-59 -16 -99 -78 -110 -175 -6 -47 -3 -65 14 -101 24 -49
53 -67 110 -67 72 0 115 58 127 171 5 52 3 73 -11 103 -26 54 -79 82 -130 69z
m65 -73 c16 -30 -4 -97 -32 -106 -46 -14 -71 68 -35 114 15 19 55 14 67 -8z"/>
<path d="M4946 8920 c-38 -34 -52 -67 -61 -151 -8 -69 13 -122 59 -150 40 -24
73 -24 113 1 46 27 63 60 75 138 14 85 6 116 -37 159 -45 45 -99 46 -149 3z
m115 -43 c7 -16 6 -34 -3 -62 -10 -32 -18 -41 -40 -43 -45 -5 -58 49 -26 111
13 25 56 22 69 -6z"/>
<path d="M3956 8548 c-23 -32 -21 -135 4 -200 72 -192 278 -241 417 -99 43 43
93 144 93 187 0 59 -10 63 -230 100 -247 40 -264 41 -284 12z"/>
<path d="M10095 8990 c-46 -30 -65 -75 -65 -150 0 -98 41 -153 123 -167 50 -8
120 27 141 71 21 44 21 157 1 197 -34 65 -137 91 -200 49z m113 -42 c7 -7 12
-29 12 -50 0 -29 -6 -41 -25 -54 -23 -15 -27 -15 -50 0 -19 13 -25 25 -25 54
0 45 14 62 50 62 14 0 31 -5 38 -12z"/>
<path d="M11873 8990 c-47 -28 -63 -67 -63 -150 0 -88 18 -122 78 -151 70 -34
142 -13 182 54 24 39 27 141 6 191 -29 69 -134 98 -203 56z m115 -42 c7 -7 12
-29 12 -50 0 -29 -6 -41 -25 -54 -23 -15 -27 -15 -50 0 -19 13 -25 25 -25 54
0 45 14 62 50 62 14 0 31 -5 38 -12z"/>
<path d="M10757 8412 c-61 -67 39 -256 165 -313 75 -33 201 -34 273 -1 100 46
173 142 182 241 9 93 14 91 -323 91 -259 0 -282 -1 -297 -18z"/>
<path d="M9275 7615 c-140 -51 -361 -189 -401 -250 -16 -25 -16 -27 0 -43 14
-14 37 -17 144 -16 144 1 215 12 357 55 89 27 258 103 293 132 19 15 3 25 -58
37 -72 14 -148 50 -187 88 -17 18 -37 32 -45 31 -7 0 -53 -15 -103 -34z"/>
<path d="M12695 7618 c-35 -38 -113 -74 -184 -88 -61 -11 -74 -18 -65 -31 12
-20 205 -109 300 -138 141 -43 211 -54 356 -55 107 -1 130 2 144 16 16 16 16
19 1 42 -21 32 -138 118 -242 178 -71 40 -242 109 -270 108 -5 -1 -23 -15 -40
-32z"/>
<path d="M8012 3654 c-29 -20 -52 -65 -52 -102 0 -39 19 -92 34 -92 15 0 53
26 94 63 42 41 45 95 6 126 -32 25 -52 26 -82 5z"/>
<path d="M7877 3112 c-132 -105 -171 -259 -87 -344 58 -58 129 -32 236 84 47
51 124 159 124 172 0 3 -24 18 -52 32 -29 15 -76 42 -104 60 -28 19 -55 34
-60 34 -5 0 -31 -17 -57 -38z"/>
<path d="M12287 3358 c-4 -51 -10 -168 -13 -261 l-7 -167 40 14 c125 44 210
113 237 193 30 89 16 153 -49 216 -41 40 -121 83 -171 93 l-31 6 -6 -94z"/>
<path d="M5657 3287 c-38 -57 -122 -226 -115 -232 1 -1 40 -5 86 -7 l82 -5 -1
61 c-1 34 -4 101 -8 151 l-6 90 -38 -58z"/>
<path d="M4702 1725 c-18 -41 -32 -77 -32 -80 0 -3 29 -5 65 -5 36 0 65 4 65
8 0 13 -49 135 -58 144 -4 4 -22 -26 -40 -67z"/>
<path d="M5273 1823 l-33 -4 0 -61 0 -60 55 4 c89 7 141 61 98 100 -20 18 -72
27 -120 21z"/>
<path d="M5247 1643 c-4 -3 -7 -30 -7 -60 l0 -53 60 0 c79 0 127 20 136 56 11
45 -22 64 -110 64 -40 0 -76 -3 -79 -7z"/>
<path d="M7765 1727 c-19 -42 -35 -78 -35 -81 0 -3 31 -6 69 -6 l69 0 -30 77
c-16 43 -31 80 -34 82 -2 2 -20 -30 -39 -72z"/>
<path d="M9325 1804 c-41 -21 -62 -50 -75 -105 -9 -38 -9 -53 4 -82 38 -93
186 -104 231 -17 8 16 15 54 15 84 0 66 -31 110 -88 126 -48 13 -51 13 -87 -6z"/>
<path d="M2937 1755 c-4 -37 -4 -71 -2 -75 7 -12 104 8 138 28 40 22 47 60 17
87 -15 13 -40 20 -84 23 l-63 4 -6 -67z"/>
<path d="M13647 1813 c-4 -3 -7 -37 -7 -74 l0 -67 43 5 c23 3 62 15 87 26 90
43 48 117 -66 117 -28 0 -54 -3 -57 -7z"/>
</g>
</svg>
