<svg id="visual" viewBox="0 0 960 540" width="960" height="540" xmlns="http://www.w3.org/2000/svg" xmlns:xlink="http://www.w3.org/1999/xlink" version="1.1"><rect x="0" y="0" width="960" height="540" fill="#ebedef"></rect><defs><linearGradient id="grad1_0" x1="43.8%" y1="100%" x2="100%" y2="0%"><stop offset="14.444444444444446%" stop-color="#ebedef" stop-opacity="1"></stop><stop offset="85.55555555555554%" stop-color="#ebedef" stop-opacity="1"></stop></linearGradient></defs><defs><linearGradient id="grad2_0" x1="0%" y1="100%" x2="56.3%" y2="0%"><stop offset="14.444444444444446%" stop-color="#ebedef" stop-opacity="1"></stop><stop offset="85.55555555555554%" stop-color="#ebedef" stop-opacity="1"></stop></linearGradient></defs><g transform="translate(960, 540)"><path d="M-189 0C-184.7 -34.2 -180.4 -68.3 -163.7 -94.5C-147 -120.7 -117.8 -138.9 -88.5 -153.3C-59.2 -167.7 -29.6 -178.4 0 -189L0 0Z" fill="#e36c8b"></path></g><g transform="translate(0, 0)"><path d="M189 0C185.2 35.1 181.5 70.2 163.7 94.5C145.9 118.8 114.1 132.4 84.5 146.4C54.9 160.3 27.4 174.7 0 189L0 0Z" fill="#e36c8b"></path></g></svg>